<svg id="Layer_1" data-name="Layer 1" xmlns="http://www.w3.org/2000/svg" viewBox="0 0 1083.11 213.18"><defs><style>.cls-1{fill:#fff;}.cls-2{fill:#fdfeff;}</style></defs><title>LOGO white</title><path class="cls-1" d="M55.23,230v5.77H21.28V183.29H54.5v5.77H27.85v16.68H49v5.34H27.85V230Z" transform="translate(-13.29 -23.67)"/><path class="cls-1" d="M58.65,221.89l5.92-1.35q3.58,10.73,15.49,10.73,6.23,0,9.38-2.64a8.77,8.77,0,0,0,3.15-7.08,6.75,6.75,0,0,0-2.4-5.4,13.34,13.34,0,0,0-5.55-2.82l-10.5-2.59a27,27,0,0,1-6.67-2.52,12.16,12.16,0,0,1-4.4-4.56,13.66,13.66,0,0,1-1.81-7,12.67,12.67,0,0,1,5-10.49q5-3.91,12.73-3.91,14.3,0,18.8,13l-6,1.77a10.55,10.55,0,0,0-4.88-7,15.37,15.37,0,0,0-8.19-2.36A13.35,13.35,0,0,0,71,189.87a7.34,7.34,0,0,0-3.36,6.45q0,5.83,8.53,7.88L86,206.5q13.46,3.23,13.46,14.5a14.55,14.55,0,0,1-5.06,11.32q-5.06,4.52-14.24,4.52Q63.88,236.84,58.65,221.89Z" transform="translate(-13.29 -23.67)"/><path class="cls-1" d="M115.81,235.77h-6.57V183.29h18.61q8.73,0,12.88,4.75a16,16,0,0,1,4.15,10.82A15,15,0,0,1,140.36,210q-4.52,4.42-11.82,4.42H115.81Zm0-26.76h12.07a10.25,10.25,0,0,0,7.5-2.79,9.84,9.84,0,0,0,2.85-7.36,10.69,10.69,0,0,0-2.54-7q-2.54-3.07-7.34-3.08H115.81Z" transform="translate(-13.29 -23.67)"/><path class="cls-1" d="M185.45,235.77h-6.71l-5.28-15.34H154l-4.7,15.34h-5.5l17.05-52.48h7.44Zm-13.39-20.26-8.13-25.22-8.12,25.22Z" transform="translate(-13.29 -23.67)"/><path class="cls-1" d="M221.77,218.12l6,1.34q-4.31,17.38-19.45,17.38a18.09,18.09,0,0,1-15.63-8Q187,220.76,187,209q0-12.12,5.92-19.47t15.88-7.35q14.76,0,19,16.88l-6.19,1.23q-3.38-12.53-12.8-12.53A12.18,12.18,0,0,0,198,193.61q-3.83,5.82-3.83,16.36,0,9.65,3.92,15.47t10.38,5.82Q218.5,231.27,221.77,218.12Z" transform="translate(-13.29 -23.67)"/><path class="cls-1" d="M269.86,230v5.77H235.91V183.29h33.22v5.77H242.49v16.68h21.14v5.34H242.49V230Z" transform="translate(-13.29 -23.67)"/><path class="cls-1" d="M332.68,230v5.77H298.73V183.29h33.22v5.77H305.31v16.68h21.14v5.34H305.31V230Zm-5.54-58.74-15.92,7.27-1.65-3.11,15.24-8.77Z" transform="translate(-13.29 -23.67)"/><path class="cls-1" d="M357.71,235.77h-6.57V189.06h-15v-5.77h36.68v5.77H357.71Z" transform="translate(-13.29 -23.67)"/><path class="cls-1" d="M410,183.29h5.46v34.28q0,10.31-5.05,14.79t-13.24,4.48q-9.11,0-13.49-4.62t-4.38-14.66V183.29h6.57v34.28q0,6.12,1.42,8.62a8.52,8.52,0,0,0,4.31,3.69,15.63,15.63,0,0,0,6,1.19q6.07,0,9.23-3.19T410,217.57Z" transform="translate(-13.29 -23.67)"/><path class="cls-1" d="M427.79,235.77V183.29H445.4q11.11,0,17.3,7.57t6.19,18.53q0,11.11-6,18.74a18.7,18.7,0,0,1-15.3,7.63Zm6.57-5.57H445q8.46,0,12.84-5.84t4.38-15.42a24.41,24.41,0,0,0-4.17-14q-4.17-6.19-13.05-6.19H434.36Z" transform="translate(-13.29 -23.67)"/><path class="cls-1" d="M485.3,235.77h-6.57V183.29h6.57Z" transform="translate(-13.29 -23.67)"/><path class="cls-1" d="M533.75,235.77H527l-5.28-15.34H502.29l-4.69,15.34h-5.5l17.05-52.48h7.44Zm-13.39-20.26-8.13-25.22-8.12,25.22Z" transform="translate(-13.29 -23.67)"/><path class="cls-1" d="M579.22,235.77h-6.38L545.7,190l.08,3.46q.12,2,.12,3.31v39h-5.3V183.29h8.23l25.37,42.77-.08-3.65q-.08-2.15-.08-3.8V183.29h5.19Z" transform="translate(-13.29 -23.67)"/><path class="cls-1" d="M608.17,235.77h-6.57V189.06h-15v-5.77h36.68v5.77H608.17Z" transform="translate(-13.29 -23.67)"/><path class="cls-2" d="M494.75,50H518V88h20.68V50H562V152.64h-23.3V110H518v42.67h-23.3Z" transform="translate(-13.29 -23.67)"/><path class="cls-2" d="M655.83,152.64H631.61l-3.92-17.15h-24.6L599,152.64H575.25L602.47,50h26.14ZM623.23,117q-5.23-22.91-7.84-43.6h-.31q-2.77,21.3-7.77,43.6Z" transform="translate(-13.29 -23.67)"/><path class="cls-2" d="M667.59,150.71V126.8q11.07,6.46,18.61,6.46a9.61,9.61,0,0,0,6.92-2.42,8.46,8.46,0,0,0,2.54-6.42,9.39,9.39,0,0,0-2-5.77,38.67,38.67,0,0,0-7-6.54q-12.07-9.23-17.49-17.18a30.78,30.78,0,0,1-5.42-17.72q0-13.3,8.38-21.68t21.68-8.38a48.45,48.45,0,0,1,19.53,4.23v23q-10.38-5.69-16.84-5.69a10.2,10.2,0,0,0-6.8,2.11,7.2,7.2,0,0,0-2.5,5.81q0,6.46,11.61,14.53a70.49,70.49,0,0,1,14,13.42,30.62,30.62,0,0,1,7.11,20q0,13.3-9.3,22T687,155.33A44.39,44.39,0,0,1,667.59,150.71Z" transform="translate(-13.29 -23.67)"/><path class="cls-2" d="M736.56,150.71V126.8q11.07,6.46,18.61,6.46a9.61,9.61,0,0,0,6.92-2.42,8.46,8.46,0,0,0,2.54-6.42,9.39,9.39,0,0,0-2-5.77,38.67,38.67,0,0,0-7-6.54q-12.07-9.23-17.49-17.18a30.78,30.78,0,0,1-5.42-17.72q0-13.3,8.38-21.68t21.68-8.38a48.45,48.45,0,0,1,19.53,4.23v23q-10.38-5.69-16.84-5.69a10.2,10.2,0,0,0-6.8,2.11,7.2,7.2,0,0,0-2.5,5.81q0,6.46,11.61,14.53a70.49,70.49,0,0,1,14,13.42,30.62,30.62,0,0,1,7.11,20q0,13.3-9.3,22t-23.6,8.73A44.39,44.39,0,0,1,736.56,150.71Z" transform="translate(-13.29 -23.67)"/><path class="cls-2" d="M877.34,152.64H853.12l-3.92-17.15H824.6l-4.08,17.15H796.76L824,50h26.14ZM844.74,117q-5.23-22.91-7.84-43.6h-.31q-2.77,21.3-7.77,43.6Z" transform="translate(-13.29 -23.67)"/><path class="cls-2" d="M889.11,50h23.53l29.6,59.2-.85-11.07V50h23.3V152.64H940.77l-29-58.28.62,12.76v45.52h-23.3Z" transform="translate(-13.29 -23.67)"/><path class="cls-2" d="M1026.2,50h23.3V152.64h-23.3Z" transform="translate(-13.29 -23.67)"/><path class="cls-2" d="M1073.1,50h23.3V152.64h-23.3Z" transform="translate(-13.29 -23.67)"/><path class="cls-1" d="M309.39,27.92c-.21,2,.17,4.22-.63,6.21-1.39,3-2.79,6-4.39,9-3.8,7-8.61,13.22-13.39,19.42-4.39,5.4-8.61,10.39-13,15.38-4.39,5.23-9.21,10.43-13.81,15.41-2,2.62-4.18,5-6.21,7.81-1.78,2.58-3.59,5.2-4.39,8-1.6,4.81,0,7,4.39,8,1.81.38,3.59.59,5.4.8l5.61,1a5.07,5.07,0,0,1,4,5c.63,4-1.57,7-4.18,9.41a44.18,44.18,0,0,1-20,10.18c-3.59,1-7.39,1.6-11,2.41-.8.21-1.39-.59-1-1.6.59-3,1.19-5.79,2-8.61,3.42-10.18,6.42-20.4,9.62-30.41l7.18-21.58c2.82-7.81,5.61-15.62,8.82-23.4,1-3,2.2-6.21,4.78-8.61a3.8,3.8,0,0,0-.8-5.4c-1.39-1-4.18-.21-5.2,1.6a15.84,15.84,0,0,1-.8,2.79,13.87,13.87,0,0,1-.59,4.22c-3.38,10.77-7.18,21.37-10.81,32.18-3.38,9.41-6.59,19-9.38,28.8a228.2,228.2,0,0,0-7.43,28.21,4.06,4.06,0,0,1-1.78,2c-.42.38-1.22.38-2,.8-1.6.59-2,1.6-.59,2.79.42.42.8.8,1,.8,2,.21,1.6,1.6,1.6,2.79a.21.21,0,0,1,0,.14h-219V23.67H286.17a71.23,71.23,0,0,0-13.6,6.66,109.34,109.34,0,0,0-20.22,15.59c-4.39,4.22-8.58,8.82-12.59,13.42a56.09,56.09,0,0,0-6,7.39l-11,16.6c-2.2,3.42-4,7.22-6.21,10.6a9.63,9.63,0,0,0-1,6.21,3.6,3.6,0,0,0,3.21,2.62,2.78,2.78,0,0,0,3.17-2.62,6.33,6.33,0,0,0,0-2,47.52,47.52,0,0,1,.63-5.4c1-2.2,1.78-4.39,2.79-6.42,7-12,14.82-23.61,24.41-33.61a122.14,122.14,0,0,1,15-13.77,86.58,86.58,0,0,1,19.81-11.82A72.7,72.7,0,0,1,294,23.67h12.76A4.45,4.45,0,0,1,309.39,27.92Z" transform="translate(-13.29 -23.67)"/><path class="cls-1" d="M310.71,23.67A9.52,9.52,0,0,1,312,29.11c-.59,7.81-4.39,14-8.4,20a126.63,126.63,0,0,1-14.61,19L275.57,84c-4.81,5.58-9.59,11.19-14,17a22.45,22.45,0,0,0-5,9c-.38,2.2.38,3.63,2.62,4s4.57.59,7.18.8c3.21.42,6,1.19,8.4,3.8,2.62,3,3,8.4,1,11.82a26.3,26.3,0,0,1-10.22,10.18,64.84,64.84,0,0,1-22,8c-1.81.17-3.59,1-5.4,1-2.58.21-3.14,1.92-3.35,3.94H445.27V23.67ZM438,50.34a57.74,57.74,0,0,1-10,13c-4.18,3.8-8.79,7.39-13.39,11.19l-2,1.19a3.31,3.31,0,0,1-4.43-1.39,3.75,3.75,0,0,1,1.6-4.81c2.41-1.19,4.81-2.37,7.22-3.8,4.78-2.37,12.59-8.79,15.59-13.18A22.12,22.12,0,0,0,436,43.72a7.15,7.15,0,0,0-3.59-7.6c-3.21-2.41-7-3-10.63-3.59a41.43,41.43,0,0,0-16.39,1.6,86.13,86.13,0,0,0-17.89,7.22,24.33,24.33,0,0,1,8.89,2.2c1.19.59,2.41,1.39,2.41,2.79.21.59,0,1.6-.42,1.81-.38.38-1.39.17-1.78-.21a22,22,0,0,0-3.59-2.2,25.74,25.74,0,0,0-7.81-1.39h-3c-2.16,1.33-4.29,2.72-6.42,4.18-5.61,4-11,8.61-14.82,14.61-2.79,4.39-4.6,8.79-4.18,14A11,11,0,0,0,360,84.55a24.66,24.66,0,0,0,8.58,5.58,108.83,108.83,0,0,0,13.6,4.81c6.63,1.81,13.22,3.42,19.42,5.61,4,1.39,8,3.59,10.6,7.39a11.14,11.14,0,0,1,1,11.4c-2.41,5-6,8.4-10.43,11.4a64.08,64.08,0,0,1-26.19,10.6,59.11,59.11,0,0,1-10.22.59,5,5,0,0,1-5.2-2.79c.8-1,1.6-2.62,3.42-1.19a89.37,89.37,0,0,0,12.59-.42,56.49,56.49,0,0,0,14.19-4.39c6.63-3.21,13-7,17.23-13.6,3.21-4.6,2.41-8.4-2-12A24.21,24.21,0,0,0,398,103c-7-2.41-14.4-4.43-21.62-6.42-6.42-1.81-12.59-4.22-17.61-8.61a13.48,13.48,0,0,1-5.2-10.18c-.38-7.22,2.41-13.22,6.8-18.83a68.77,68.77,0,0,1,16.56-14.58,53.65,53.65,0,0,0-10.57,1.57c-3.38.63-6.59,1.22-10,1.6-3,.63-5.23,1.81-6.42,5-4.18,9-10,25.21-13.22,34.8-2.2,6.59-4.78,13.22-6.8,19.81A208.56,208.56,0,0,0,322.78,134c-.63,2.58-.63,5.2-1,7.81a6.33,6.33,0,0,1,0,2,3.22,3.22,0,0,1-1.81,1.39,3.08,3.08,0,0,1-1.19-1.39,3.21,3.21,0,0,1,0-2c.59-4.43,1-8.82,1.81-13.22,2.79-14.4,7.78-28.21,12.59-42.23,3-8.4,7.81-23.78,11.82-31.8.59-1,1.19-2.58.8-3.21-1-1.6-2.41,0-3.42.42a143.4,143.4,0,0,0-29.39,12,44.28,44.28,0,0,0-6.63,4.22,8.86,8.86,0,0,0-2.79,4.57c-.42,2.41-2,3.42-3.8,3-2-.42-3.21-3-2.79-5.23.38-1.78,1.6-2.79,3.17-3.8a222.15,222.15,0,0,1,41.21-17.78c.21,0,.63-.21.8-.21,5.82-2,4.81-.8,5-1.19l2.2-4.6,4.78-10.43a4.64,4.64,0,0,1,3-2.79,3.53,3.53,0,0,1,4.18,1.39,4.34,4.34,0,0,1-.59,4.39,5.21,5.21,0,0,1-1.22,1A6.64,6.64,0,0,0,356,39.74c-2.41,4.18-.38,1-3,5.2,2.79.8,5-.59,7.39-.8,4.6-.8,9.41-2,14.23-2.2,2.3-.1,4.6-.31,6.94-.45,1.39-.8,2.82-1.6,4.25-2.37a93.69,93.69,0,0,1,18.41-7.6,49.29,49.29,0,0,1,17-2.2,31.64,31.64,0,0,1,13.22,3.8,10.77,10.77,0,0,1,5.4,9.41A17.68,17.68,0,0,1,438,50.34Z" transform="translate(-13.29 -23.67)"/></svg>