<svg id="Layer_1" data-name="Layer 1" xmlns="http://www.w3.org/2000/svg" viewBox="0 0 1082.99 213.18"><defs><style>.cls-1{fill:#00a1db;}</style></defs><title>logo_blue</title><path class="cls-1" d="M41.94,206.33v5.77H8V159.62H41.21v5.77H14.56v16.68H35.71v5.34H14.56v18.92Z" transform="translate(-0.12)"/><path class="cls-1" d="M45.36,198.22l5.92-1.35q3.58,10.73,15.49,10.73,6.23,0,9.38-2.64a8.77,8.77,0,0,0,3.15-7.08,6.75,6.75,0,0,0-2.4-5.4,13.34,13.34,0,0,0-5.55-2.82l-10.5-2.59a27,27,0,0,1-6.67-2.52,12.16,12.16,0,0,1-4.4-4.56A13.66,13.66,0,0,1,48,173a12.67,12.67,0,0,1,5-10.49q5-3.91,12.73-3.91,14.3,0,18.8,13l-6,1.77a10.55,10.55,0,0,0-4.88-7A15.37,15.37,0,0,0,65.43,164a13.35,13.35,0,0,0-7.72,2.2,7.34,7.34,0,0,0-3.36,6.45q0,5.83,8.53,7.88l9.83,2.3q13.46,3.23,13.46,14.5a14.55,14.55,0,0,1-5.06,11.32q-5.06,4.52-14.24,4.52Q50.59,213.17,45.36,198.22Z" transform="translate(-0.12)"/><path class="cls-1" d="M102.52,212.1H95.95V159.62h18.61q8.73,0,12.88,4.75a16,16,0,0,1,4.15,10.82,15,15,0,0,1-4.52,11.14q-4.52,4.42-11.82,4.42H102.52Zm0-26.76h12.07a10.25,10.25,0,0,0,7.5-2.79,9.84,9.84,0,0,0,2.85-7.36,10.69,10.69,0,0,0-2.54-7,9,9,0,0,0-7.34-3.08H102.52Z" transform="translate(-0.12)"/><path class="cls-1" d="M172.16,212.1h-6.71l-5.28-15.34H140.71L136,212.1h-5.5l17.05-52.48H155Zm-13.39-20.26-8.13-25.22-8.12,25.22Z" transform="translate(-0.12)"/><path class="cls-1" d="M208.48,194.45l6,1.34q-4.31,17.38-19.45,17.38a18.09,18.09,0,0,1-15.63-8q-5.69-8.08-5.69-19.84,0-12.12,5.92-19.47t15.88-7.35q14.76,0,19,16.88l-6.19,1.23q-3.38-12.53-12.8-12.53a12.18,12.18,0,0,0-10.81,5.85q-3.83,5.82-3.83,16.36,0,9.65,3.92,15.47t10.38,5.82Q205.21,207.6,208.48,194.45Z" transform="translate(-0.12)"/><path class="cls-1" d="M256.57,206.33v5.77H222.62V159.62h33.22v5.77H229.2v16.68h21.14v5.34H229.2v18.92Z" transform="translate(-0.12)"/><path class="cls-1" d="M319.39,206.33v5.77H285.44V159.62h33.22v5.77H292v16.68h21.14v5.34H292v18.92Zm-5.54-58.74-15.92,7.27-1.65-3.11L311.52,143Z" transform="translate(-0.12)"/><path class="cls-1" d="M344.42,212.1h-6.57V165.39h-15v-5.77h36.68v5.77H344.42Z" transform="translate(-0.12)"/><path class="cls-1" d="M396.71,159.62h5.46V193.9q0,10.31-5,14.79t-13.24,4.48q-9.11,0-13.49-4.62T366,193.89V159.62h6.57V193.9q0,6.12,1.42,8.62a8.52,8.52,0,0,0,4.31,3.69,15.63,15.63,0,0,0,6,1.19q6.07,0,9.23-3.19t3.17-10.31Z" transform="translate(-0.12)"/><path class="cls-1" d="M414.5,212.1V159.62h17.61q11.11,0,17.3,7.57t6.19,18.53q0,11.11-6,18.74a18.7,18.7,0,0,1-15.3,7.63Zm6.57-5.57h10.64q8.46,0,12.84-5.84t4.38-15.42a24.41,24.41,0,0,0-4.17-14q-4.17-6.19-13-6.19H421.07Z" transform="translate(-0.12)"/><path class="cls-1" d="M472,212.1h-6.57V159.62H472Z" transform="translate(-0.12)"/><path class="cls-1" d="M520.46,212.1h-6.75l-5.28-15.34H489l-4.69,15.34h-5.5l17-52.48h7.44Zm-13.39-20.26-8.13-25.22-8.12,25.22Z" transform="translate(-0.12)"/><path class="cls-1" d="M565.93,212.1h-6.38l-27.14-45.77.08,3.46q.12,2,.12,3.31v39h-5.3V159.62h8.23l25.37,42.77-.08-3.65q-.08-2.15-.08-3.8V159.62h5.19Z" transform="translate(-0.12)"/><path class="cls-1" d="M594.88,212.1h-6.57V165.39h-15v-5.77H610v5.77H594.88Z" transform="translate(-0.12)"/><path class="cls-1" d="M481.46,26.33h23.25v38h20.68v-38h23.32V129h-23.3V86.33h-20.7V129h-23.3Z" transform="translate(-0.12)"/><path class="cls-1" d="M642.54,129H618.32l-3.92-17.15H589.8L585.71,129H562L589.18,26.33h26.14Zm-32.6-35.64q-5.23-22.91-7.84-43.6h-.31Q599,71,594,93.33Z" transform="translate(-0.12)"/><path class="cls-1" d="M654.3,127V103.13q11.07,6.46,18.61,6.46a9.61,9.61,0,0,0,6.92-2.42,8.46,8.46,0,0,0,2.54-6.42,9.39,9.39,0,0,0-2-5.77,38.67,38.67,0,0,0-7-6.54q-12.07-9.23-17.49-17.18a30.78,30.78,0,0,1-5.42-17.72q0-13.3,8.38-21.68t21.68-8.38a48.45,48.45,0,0,1,19.53,4.23v23Q689.67,45,683.21,45a10.2,10.2,0,0,0-6.8,2.11,7.2,7.2,0,0,0-2.5,5.81q0,6.46,11.61,14.53a70.49,70.49,0,0,1,14,13.42,30.62,30.62,0,0,1,7.11,20q0,13.3-9.3,22t-23.62,8.77A44.39,44.39,0,0,1,654.3,127Z" transform="translate(-0.12)"/><path class="cls-1" d="M723.27,127V103.13q11.07,6.46,18.61,6.46a9.61,9.61,0,0,0,6.92-2.42,8.46,8.46,0,0,0,2.54-6.42,9.39,9.39,0,0,0-2-5.77,38.67,38.67,0,0,0-7-6.54q-12.07-9.23-17.49-17.18a30.78,30.78,0,0,1-5.42-17.72q0-13.3,8.38-21.68t21.68-8.38A48.45,48.45,0,0,1,769,27.71v23Q758.64,45,752.18,45a10.2,10.2,0,0,0-6.8,2.11,7.2,7.2,0,0,0-2.5,5.81q0,6.46,11.61,14.53a70.49,70.49,0,0,1,14,13.42,30.62,30.62,0,0,1,7.11,20q0,13.3-9.3,22t-23.6,8.73A44.39,44.39,0,0,1,723.27,127Z" transform="translate(-0.12)"/><path class="cls-1" d="M864.05,129H839.83l-3.92-17.15h-24.6L807.23,129H783.47L810.71,26.33h26.14Zm-32.6-35.64q-5.23-22.91-7.84-43.6h-.31q-2.77,21.3-7.77,43.6Z" transform="translate(-0.12)"/><path class="cls-1" d="M875.82,26.33h23.53l29.6,59.2-.85-11.07V26.33h23.3V129H927.48l-29-58.28.62,12.76V129H875.8Z" transform="translate(-0.12)"/><path class="cls-1" d="M1012.91,26.33h23.3V129h-23.3Z" transform="translate(-0.12)"/><path class="cls-1" d="M1059.81,26.33h23.3V129h-23.3Z" transform="translate(-0.12)"/><path class="cls-1" d="M296.1,4.25c-.21,2,.17,4.22-.63,6.21-1.39,3-2.79,6-4.39,9-3.8,7-8.61,13.22-13.39,19.42-4.39,5.4-8.61,10.39-13,15.38-4.39,5.23-9.21,10.43-13.81,15.41-2,2.62-4.18,5-6.21,7.81-1.78,2.58-3.59,5.2-4.39,8-1.6,4.81,0,7,4.39,8,1.81.38,3.59.59,5.4.8l5.61,1a5.07,5.07,0,0,1,4,5c.63,4-1.57,7-4.18,9.41a44.18,44.18,0,0,1-20,10.18c-3.59,1-7.39,1.6-11,2.41-.8.21-1.39-.59-1-1.6.59-3,1.19-5.79,2-8.61,3.42-10.18,6.42-20.4,9.62-30.41l7.18-21.58c2.82-7.81,5.61-15.62,8.82-23.4,1-3,2.2-6.21,4.78-8.61a3.8,3.8,0,0,0-.7-5.33l-.1-.07c-1.39-1-4.18-.21-5.2,1.6a15.84,15.84,0,0,1-.8,2.79,13.87,13.87,0,0,1-.59,4.22c-3.38,10.77-7.18,21.37-10.81,32.18-3.38,9.41-6.59,19-9.38,28.8a228.2,228.2,0,0,0-7.43,28.21,4.06,4.06,0,0,1-1.78,2c-.42.38-1.22.38-2,.8-1.6.59-2,1.6-.59,2.79.42.42.8.8,1,.8,2,.21,1.6,1.6,1.6,2.79a.21.21,0,0,1,0,.14H.12V0H272.88a71.23,71.23,0,0,0-13.6,6.66,109.34,109.34,0,0,0-20.22,15.59c-4.39,4.22-8.58,8.82-12.59,13.42a56.09,56.09,0,0,0-6,7.39l-11,16.6c-2.2,3.42-4,7.22-6.21,10.6a9.63,9.63,0,0,0-1,6.21,3.6,3.6,0,0,0,3.21,2.62,2.78,2.78,0,0,0,3.15-2.36q0-.13,0-.26a6.33,6.33,0,0,0,0-2,47.52,47.52,0,0,1,.63-5.4c1-2.2,1.78-4.39,2.79-6.42,7-12,14.82-23.61,24.41-33.61a122.14,122.14,0,0,1,15-13.77A86.58,86.58,0,0,1,271.28,3.45,72.7,72.7,0,0,1,280.71,0h12.76A4.45,4.45,0,0,1,296.1,4.25Z" transform="translate(-0.12)"/><path class="cls-1" d="M297.42,0a9.52,9.52,0,0,1,1.29,5.44c-.59,7.81-4.39,14-8.4,20a126.63,126.63,0,0,1-14.61,19L262.28,60.33c-4.81,5.58-9.59,11.19-14,17a22.45,22.45,0,0,0-5,9c-.38,2.2.38,3.63,2.62,4s4.57.59,7.18.8c3.21.42,6,1.19,8.4,3.8,2.62,3,3,8.4,1,11.82a26.3,26.3,0,0,1-10.22,10.18,64.84,64.84,0,0,1-22,8c-1.81.17-3.59,1-5.4,1-2.58.21-3.14,1.92-3.35,3.94H432V0ZM424.71,26.67a57.74,57.74,0,0,1-10,13c-4.18,3.8-8.79,7.39-13.39,11.19l-2,1.19a3.31,3.31,0,0,1-4.43-1.39,3.75,3.75,0,0,1,1.6-4.81c2.41-1.19,4.81-2.37,7.22-3.8,4.78-2.37,12.59-8.79,15.59-13.18a22.12,22.12,0,0,0,3.41-8.82,7.15,7.15,0,0,0-3.59-7.6c-3.21-2.41-7-3-10.63-3.59a41.43,41.43,0,0,0-16.39,1.6,86.13,86.13,0,0,0-17.89,7.22,24.33,24.33,0,0,1,8.89,2.2c1.19.59,2.41,1.39,2.41,2.79.21.59,0,1.6-.42,1.81-.38.38-1.39.17-1.78-.21a22,22,0,0,0-3.59-2.2,25.74,25.74,0,0,0-7.81-1.39h-3c-2.16,1.33-4.29,2.72-6.42,4.18-5.61,4-11,8.61-14.82,14.61-2.79,4.39-4.6,8.79-4.18,14a11,11,0,0,0,3.22,7.41,24.66,24.66,0,0,0,8.58,5.58,108.83,108.83,0,0,0,13.6,4.81c6.63,1.81,13.22,3.42,19.42,5.61,4,1.39,8,3.59,10.6,7.39a11.14,11.14,0,0,1,1,11.4c-2.41,5-6,8.4-10.43,11.4a64.08,64.08,0,0,1-26.19,10.6,59.11,59.11,0,0,1-10.22.59,5,5,0,0,1-5.2-2.79c.8-1,1.6-2.62,3.42-1.19a89.37,89.37,0,0,0,12.59-.42,56.49,56.49,0,0,0,14.19-4.39c6.63-3.21,13-7,17.23-13.6,3.21-4.6,2.41-8.4-2-12a24.21,24.21,0,0,0-8.59-4.54c-7-2.41-14.4-4.43-21.62-6.42-6.42-1.81-12.59-4.22-17.61-8.61a13.48,13.48,0,0,1-5.2-10.18c-.38-7.22,2.41-13.22,6.8-18.83a68.77,68.77,0,0,1,16.56-14.58,53.65,53.65,0,0,0-10.57,1.57c-3.38.63-6.59,1.22-10,1.6-3,.63-5.23,1.81-6.42,5-4.18,9-10,25.21-13.22,34.8-2.2,6.59-4.78,13.22-6.8,19.81a208.56,208.56,0,0,0-7.14,26.84c-.63,2.58-.63,5.2-1,7.81a6.33,6.33,0,0,1,0,2,3.22,3.22,0,0,1-1.81,1.39,3.08,3.08,0,0,1-1.19-1.39,3.21,3.21,0,0,1,0-2c.59-4.43,1-8.82,1.81-13.22,2.79-14.4,7.78-28.21,12.59-42.23,3-8.4,7.81-23.78,11.82-31.8.59-1,1.19-2.58.8-3.21-1-1.6-2.41,0-3.42.42a143.4,143.4,0,0,0-29.39,12,44.28,44.28,0,0,0-6.63,4.22,8.86,8.86,0,0,0-2.79,4.57c-.42,2.41-2,3.42-3.8,3-2-.42-3.21-3-2.79-5.23.38-1.78,1.6-2.79,3.17-3.8a222.15,222.15,0,0,1,41.21-17.78c.21,0,.63-.21.8-.21,5.82-2,4.81-.8,5-1.19l2.2-4.6,4.78-10.43a4.64,4.64,0,0,1,3-2.79A3.53,3.53,0,0,1,348,7.25a4.34,4.34,0,0,1-.59,4.39,5.21,5.21,0,0,1-1.22,1,6.64,6.64,0,0,0-3.51,3.43c-2.41,4.18-.38,1-3,5.2,2.79.8,5-.59,7.39-.8,4.6-.8,9.41-2,14.23-2.2,2.3-.1,4.6-.31,6.94-.45,1.39-.8,2.82-1.6,4.25-2.37a93.69,93.69,0,0,1,18.41-7.6,49.29,49.29,0,0,1,17-2.2,31.64,31.64,0,0,1,13.22,3.8,10.77,10.77,0,0,1,5.4,9.41A17.68,17.68,0,0,1,424.71,26.67Z" transform="translate(-0.12)"/></svg>